<?xml version="1.0" standalone="no"?>
<!DOCTYPE svg PUBLIC "-//W3C//DTD SVG 20010904//EN"
 "http://www.w3.org/TR/2001/REC-SVG-20010904/DTD/svg10.dtd">
<svg version="1.0" xmlns="http://www.w3.org/2000/svg"
 width="153.000000pt" height="54.000000pt" viewBox="0 0 153.000000 54.000000"
 preserveAspectRatio="xMidYMid meet">
<metadata>
Created by potrace 1.16, written by Peter Selinger 2001-2019
</metadata>
<g transform="translate(0.000000,54.000000) scale(0.100000,-0.100000)"
fill="#000000" stroke="none">
<path d="M0 270 l0 -270 765 0 765 0 0 270 0 270 -765 0 -765 0 0 -270z m325
93 c16 -15 19 -15 45 0 36 22 84 22 105 1 18 -19 16 -39 -19 -143 l-23 -66
-46 -3 -46 -3 19 57 c23 67 26 104 6 104 -21 0 -39 -27 -62 -94 l-21 -61 -45
-3 -46 -3 23 73 c24 75 24 88 1 88 -21 0 -39 -28 -62 -94 l-21 -61 -46 -3 -46
-3 37 110 36 111 44 0 c26 0 41 -4 37 -10 -8 -14 -2 -13 31 5 38 20 79 19 99
-2z m491 6 c9 -15 -29 -51 -68 -63 -27 -9 -37 -21 -55 -66 -12 -30 -24 -63
-26 -72 -4 -14 -16 -18 -50 -18 l-45 0 36 110 36 110 44 0 c32 0 41 -3 36 -12
-5 -7 3 -5 16 4 29 20 66 23 76 7z m212 -12 c16 -17 21 -68 9 -100 -5 -14 -20
-17 -92 -17 -67 0 -85 -3 -85 -14 0 -24 20 -29 59 -16 25 8 48 9 71 3 l35 -9
-43 -29 c-90 -59 -212 -39 -212 35 0 62 45 128 105 156 39 19 130 13 153 -9z
m238 12 c9 -15 -29 -51 -68 -63 -27 -9 -37 -21 -55 -66 -12 -30 -24 -63 -26
-72 -4 -14 -16 -18 -50 -18 l-45 0 36 110 36 110 44 0 c32 0 41 -3 36 -12 -5
-7 3 -5 16 4 29 20 66 23 76 7z m188 0 c75 -34 38 -166 -58 -210 -141 -64
-232 45 -133 158 51 58 130 79 191 52z m-844 -7 c0 -4 -15 -53 -33 -107 l-34
-100 -46 -3 -46 -3 37 110 36 111 43 0 c24 0 43 -4 43 -8z"/>
</g>
</svg>
